# UnrealEd OBJ exporter (_Internal)



v 5.599093 0.000000 -28.148537

v 0.000002 0.000000 -28.700001

v 0.000002 87.000000 -28.700001

v 5.599093 87.000000 -28.148537

v 10.983015 0.000000 -26.515343

v 10.983015 87.000000 -26.515343

v 15.944864 0.000000 -23.863180

v 15.944864 87.000000 -23.863180

v 20.293964 0.000000 -20.293964

v 20.293964 87.000000 -20.293964

v 23.863178 0.000000 -15.944866

v 23.863178 87.000000 -15.944866

v 26.515343 0.000000 -10.983015

v 26.515343 87.000000 -10.983015

v 28.148537 0.000000 -5.599092

v 28.148537 87.000000 -5.599092

v 28.700001 0.000000 -0.000000

v 28.700001 87.000000 -0.000000

v 28.148546 0.000000 5.599049

v 28.148546 87.000000 5.599049

v 26.515360 0.000000 10.982976

v 26.515360 87.000000 10.982976

v 23.863201 0.000000 15.944834

v 23.863201 87.000000 15.944834

v 20.293991 0.000000 20.293940

v 20.293991 87.000000 20.293940

v 15.944896 0.000000 23.863159

v 15.944896 87.000000 23.863159

v 10.983045 0.000000 26.515331

v 10.983045 87.000000 26.515331

v 5.599122 0.000000 28.148533

v 5.599122 87.000000 28.148533

v 0.000028 0.000000 28.700001

v 0.000028 87.000000 28.700001

v -5.599068 0.000000 28.148542

v -5.599068 87.000000 28.148542

v -10.982993 0.000000 26.515352

v -10.982993 87.000000 26.515352

v -15.944849 0.000000 23.863190

v -15.944849 87.000000 23.863190

v -20.293953 0.000000 20.293978

v -20.293953 87.000000 20.293978

v -23.863169 0.000000 15.944880

v -23.863169 87.000000 15.944880

v -26.515337 0.000000 10.983027

v -26.515337 87.000000 10.983027

v -28.148537 0.000000 5.599104

v -28.148537 87.000000 5.599104

v -28.700001 0.000000 0.000009

v -28.700001 87.000000 0.000009

v -28.148539 0.000000 -5.599086

v -28.148539 87.000000 -5.599086

v -26.515347 0.000000 -10.983010

v -26.515347 87.000000 -10.983010

v -23.863180 0.000000 -15.944864

v -23.863180 87.000000 -15.944864

v -20.293964 0.000000 -20.293964

v -20.293964 87.000000 -20.293964

v -15.944864 0.000000 -23.863180

v -15.944864 87.000000 -23.863180

v -10.983010 0.000000 -26.515345

v -10.983010 87.000000 -26.515345

v -5.599089 0.000000 -28.148539

v -5.599089 87.000000 -28.148539

v 0.000002 0.000000 -28.700001

v 0.000002 87.000000 -28.700001

v 0.000000 0.000000 -0.000000

v 28.148537 0.000000 -5.599092

v 28.700001 0.000000 -0.000000

v 28.148546 0.000000 5.599049

v 26.515343 0.000000 -10.983015

v 26.515360 0.000000 10.982976

v 23.863178 0.000000 -15.944866

v 23.863201 0.000000 15.944834

v 20.293964 0.000000 -20.293964

v 20.293991 0.000000 20.293940

v 15.944864 0.000000 -23.863180

v 15.944896 0.000000 23.863159

v 10.983015 0.000000 -26.515343

v 10.983045 0.000000 26.515331

v 5.599093 0.000000 -28.148537

v 5.599122 0.000000 28.148533

v 0.000002 0.000000 -28.700001

v 0.000028 0.000000 28.700001

v -5.599089 0.000000 -28.148539

v -5.599068 0.000000 28.148542

v -10.983010 0.000000 -26.515345

v -10.982993 0.000000 26.515352

v -15.944864 0.000000 -23.863180

v -15.944849 0.000000 23.863190

v -20.293964 0.000000 -20.293964

v -20.293953 0.000000 20.293978

v -23.863180 0.000000 -15.944864

v -23.863169 0.000000 15.944880

v -26.515347 0.000000 -10.983010

v -26.515337 0.000000 10.983027

v -28.148539 0.000000 -5.599086

v -28.148537 0.000000 5.599104

v -28.700001 0.000000 0.000009

v 0.000000 87.000000 -0.000000

v 28.700001 87.000000 -0.000000

v 28.148537 87.000000 -5.599092

v 28.148546 87.000000 5.599049

v 26.515343 87.000000 -10.983015

v 26.515360 87.000000 10.982976

v 23.863178 87.000000 -15.944866

v 23.863201 87.000000 15.944834

v 20.293964 87.000000 -20.293964

v 20.293991 87.000000 20.293940

v 15.944864 87.000000 -23.863180

v 15.944896 87.000000 23.863159

v 10.983015 87.000000 -26.515343

v 10.983045 87.000000 26.515331

v 5.599093 87.000000 -28.148537

v 5.599122 87.000000 28.148533

v 0.000002 87.000000 -28.700001

v 0.000028 87.000000 28.700001

v -5.599089 87.000000 -28.148539

v -5.599068 87.000000 28.148542

v -10.983010 87.000000 -26.515345

v -10.982993 87.000000 26.515352

v -15.944864 87.000000 -23.863180

v -15.944849 87.000000 23.863190

v -20.293964 87.000000 -20.293964

v -20.293953 87.000000 20.293978

v -23.863180 87.000000 -15.944864

v -23.863169 87.000000 15.944880

v -26.515347 87.000000 -10.983010

v -26.515337 87.000000 10.983027

v -28.148539 87.000000 -5.599086

v -28.148537 87.000000 5.599104

v -28.700001 87.000000 0.000009



vt 0.844238 0.035645

vt 0.874023 0.035645

vt 0.874023 0.687256

vt 0.844238 0.687256

vt 0.815430 0.035645

vt 0.815430 0.687256

vt 0.788574 0.035645

vt 0.788574 0.687256

vt 0.765625 0.035645

vt 0.765625 0.687256

vt 0.742188 0.035645

vt 0.742188 0.687256

vt 0.715820 0.035645

vt 0.715820 0.687256

vt 0.687012 0.035645

vt 0.687012 0.687256

vt 0.657227 0.035645

vt 0.657227 0.687256

vt 0.627441 0.035645

vt 0.627441 0.687256

vt 0.598633 0.035645

vt 0.598633 0.687256

vt 0.571777 0.035645

vt 0.571777 0.687256

vt 0.548828 0.035645

vt 0.548828 0.687256

vt 0.525391 0.035645

vt 0.525391 0.687256

vt 0.499268 0.035645

vt 0.499268 0.687256

vt 0.470459 0.035645

vt 0.470459 0.687256

vt 0.440430 0.035645

vt 0.440430 0.687256

vt 0.410645 0.035645

vt 0.410645 0.687256

vt 0.381836 0.035645

vt 0.381836 0.687256

vt 0.355225 0.035645

vt 0.355225 0.687256

vt 0.332031 0.035645

vt 0.332031 0.687256

vt 0.308838 0.035645

vt 0.308838 0.687256

vt 0.282471 0.035645

vt 0.282471 0.687256

vt 0.253662 0.035645

vt 0.253662 0.687256

vt 0.223755 0.035645

vt 0.223755 0.687256

vt 0.193848 0.035645

vt 0.193848 0.687256

vt 0.165161 0.035645

vt 0.165161 0.687256

vt 0.138550 0.035645

vt 0.138550 0.687256

vt 0.115417 0.035645

vt 0.115417 0.687256

vt 0.092163 0.035645

vt 0.092163 0.687256

vt 0.065674 0.035645

vt 0.065674 0.687256

vt 0.036926 0.035645

vt 0.036926 0.687256

vt 0.007038 0.035645

vt 0.007038 0.687256

vt 0.196655 0.840210

vt 0.237061 0.705811

vt 0.262451 0.716309

vt 0.285400 0.731689

vt 0.210083 0.700684

vt 0.304932 0.750977

vt 0.182617 0.700684

vt 0.320312 0.773804

vt 0.155640 0.706055

vt 0.330811 0.799194

vt 0.130249 0.716553

vt 0.336182 0.826172

vt 0.107483 0.731934

vt 0.336182 0.853638

vt 0.088074 0.751465

vt 0.331055 0.880554

vt 0.072876 0.774292

vt 0.320557 0.906006

vt 0.062408 0.799805

vt 0.305176 0.928894

vt 0.057098 0.826782

vt 0.285889 0.948364

vt 0.057159 0.854248

vt 0.262939 0.963684

vt 0.062561 0.881165

vt 0.237671 0.974274

vt 0.073181 0.906555

vt 0.210693 0.979691

vt 0.088501 0.929382

vt 0.183228 0.979752

vt 0.107971 0.948761

vt 0.156250 0.974442

vt 0.130859 0.963989

vt 0.525879 0.841797

vt 0.591797 0.717529

vt 0.614746 0.732910

vt 0.566406 0.707031

vt 0.634277 0.752319

vt 0.539551 0.701904

vt 0.649902 0.775146

vt 0.511719 0.701904

vt 0.660645 0.800659

vt 0.484863 0.707275

vt 0.666016 0.827637

vt 0.459473 0.718018

vt 0.666016 0.855225

vt 0.436523 0.733398

vt 0.660645 0.882324

vt 0.416992 0.752808

vt 0.650391 0.907837

vt 0.401855 0.775757

vt 0.634766 0.930786

vt 0.391357 0.801270

vt 0.615234 0.950317

vt 0.385986 0.828247

vt 0.592773 0.965698

vt 0.385986 0.855835

vt 0.566895 0.976288

vt 0.391602 0.882874

vt 0.540039 0.981735

vt 0.402100 0.908386

vt 0.512695 0.981796

vt 0.417480 0.931274

vt 0.485596 0.976471

vt 0.437012 0.950714

vt 0.459961 0.965973



vn 0.196850 0.000000 -0.984252

vn 0.000000 0.000000 -1.000000

vn 0.000000 0.000000 -1.000000

vn 0.196850 0.000000 -0.984252

vn 0.385827 0.000000 -0.921260

vn 0.385827 0.000000 -0.921260

vn 0.559055 0.000000 -0.834646

vn 0.559055 0.000000 -0.834646

vn 0.708661 0.000000 -0.708661

vn 0.708661 0.000000 -0.708661

vn 0.834646 0.000000 -0.559055

vn 0.834646 0.000000 -0.559055

vn 0.921260 0.000000 -0.385827

vn 0.921260 0.000000 -0.385827

vn 0.984252 0.000000 -0.196850

vn 0.984252 0.000000 -0.196850

vn 1.000000 0.000000 0.000000

vn 1.000000 0.000000 0.000000

vn 0.984252 0.000000 0.196850

vn 0.984252 0.000000 0.196850

vn 0.921260 0.000000 0.385827

vn 0.921260 0.000000 0.385827

vn 0.834646 0.000000 0.559055

vn 0.834646 0.000000 0.559055

vn 0.708661 0.000000 0.708661

vn 0.708661 0.000000 0.708661

vn 0.559055 0.000000 0.834646

vn 0.559055 0.000000 0.834646

vn 0.385827 0.000000 0.921260

vn 0.385827 0.000000 0.921260

vn 0.196850 0.000000 0.984252

vn 0.196850 0.000000 0.984252

vn 0.000000 0.000000 1.000000

vn 0.000000 0.000000 1.000000

vn -0.196850 0.000000 0.984252

vn -0.196850 0.000000 0.984252

vn -0.385827 0.000000 0.921260

vn -0.385827 0.000000 0.921260

vn -0.559055 0.000000 0.834646

vn -0.559055 0.000000 0.834646

vn -0.708661 0.000000 0.708661

vn -0.708661 0.000000 0.708661

vn -0.834646 0.000000 0.559055

vn -0.834646 0.000000 0.559055

vn -0.921260 0.000000 0.385827

vn -0.921260 0.000000 0.385827

vn -0.984252 0.000000 0.196850

vn -0.984252 0.000000 0.196850

vn -1.000000 0.000000 0.000000

vn -1.000000 0.000000 0.000000

vn -0.984252 0.000000 -0.196850

vn -0.984252 0.000000 -0.196850

vn -0.921260 0.000000 -0.385827

vn -0.921260 0.000000 -0.385827

vn -0.834646 0.000000 -0.559055

vn -0.834646 0.000000 -0.559055

vn -0.708661 0.000000 -0.708661

vn -0.708661 0.000000 -0.708661

vn -0.559055 0.000000 -0.834646

vn -0.559055 0.000000 -0.834646

vn -0.385827 0.000000 -0.921260

vn -0.385827 0.000000 -0.921260

vn -0.196850 0.000000 -0.984252

vn -0.196850 0.000000 -0.984252

vn 0.000000 0.000000 -1.000000

vn 0.000000 0.000000 -1.000000

vn 0.000000 -1.000000 0.000000

vn 0.000000 -1.000000 0.000000

vn 0.000000 -1.000000 0.000000

vn 0.000000 -1.000000 0.000000

vn 0.000000 -1.000000 0.000000

vn 0.000000 -1.000000 0.000000

vn 0.000000 -1.000000 0.000000

vn 0.000000 -1.000000 0.000000

vn 0.000000 -1.000000 0.000000

vn 0.000000 -1.000000 0.000000

vn 0.000000 -1.000000 0.000000

vn 0.000000 -1.000000 0.000000

vn 0.000000 -1.000000 0.000000

vn 0.000000 -1.000000 0.000000

vn 0.000000 -1.000000 0.000000

vn 0.000000 -1.000000 0.000000

vn 0.000000 -1.000000 0.000000

vn 0.000000 -1.000000 0.000000

vn 0.000000 -1.000000 0.000000

vn 0.000000 -1.000000 0.000000

vn 0.000000 -1.000000 0.000000

vn 0.000000 -1.000000 0.000000

vn 0.000000 -1.000000 0.000000

vn 0.000000 -1.000000 0.000000

vn 0.000000 -1.000000 0.000000

vn 0.000000 -1.000000 0.000000

vn 0.000000 -1.000000 0.000000

vn 0.000000 -1.000000 0.000000

vn 0.000000 -1.000000 0.000000

vn 0.000000 -1.000000 0.000000

vn 0.000000 -1.000000 0.000000

vn 0.000000 -1.000000 0.000000

vn 0.000000 -1.000000 0.000000

vn 0.000000 1.000000 0.000000

vn 0.000000 1.000000 0.000000

vn 0.000000 1.000000 0.000000

vn 0.000000 1.000000 0.000000

vn 0.000000 1.000000 0.000000

vn 0.000000 1.000000 0.000000

vn 0.000000 1.000000 0.000000

vn 0.000000 1.000000 0.000000

vn 0.000000 1.000000 0.000000

vn 0.000000 1.000000 0.000000

vn 0.000000 1.000000 0.000000

vn 0.000000 1.000000 0.000000

vn 0.000000 1.000000 0.000000

vn 0.000000 1.000000 0.000000

vn 0.000000 1.000000 0.000000

vn 0.000000 1.000000 0.000000

vn 0.000000 1.000000 0.000000

vn 0.000000 1.000000 0.000000

vn 0.000000 1.000000 0.000000

vn 0.000000 1.000000 0.000000

vn 0.000000 1.000000 0.000000

vn 0.000000 1.000000 0.000000

vn 0.000000 1.000000 0.000000

vn 0.000000 1.000000 0.000000

vn 0.000000 1.000000 0.000000

vn 0.000000 1.000000 0.000000

vn 0.000000 1.000000 0.000000

vn 0.000000 1.000000 0.000000

vn 0.000000 1.000000 0.000000

vn 0.000000 1.000000 0.000000

vn 0.000000 1.000000 0.000000

vn 0.000000 1.000000 0.000000

vn 0.000000 1.000000 0.000000

f 1/1/1 2/2/2 3/3/3

f 1/1/1 3/3/3 4/4/4

f 5/5/5 1/1/1 4/4/4

f 5/5/5 4/4/4 6/6/6

f 7/7/7 5/5/5 6/6/6

f 7/7/7 6/6/6 8/8/8

f 9/9/9 7/7/7 8/8/8

f 9/9/9 8/8/8 10/10/10

f 11/11/11 9/9/9 10/10/10

f 11/11/11 10/10/10 12/12/12

f 13/13/13 11/11/11 12/12/12

f 13/13/13 12/12/12 14/14/14

f 15/15/15 13/13/13 14/14/14

f 15/15/15 14/14/14 16/16/16

f 17/17/17 15/15/15 16/16/16

f 17/17/17 16/16/16 18/18/18

f 19/19/19 17/17/17 18/18/18

f 19/19/19 18/18/18 20/20/20

f 21/21/21 19/19/19 20/20/20

f 21/21/21 20/20/20 22/22/22

f 23/23/23 21/21/21 22/22/22

f 23/23/23 22/22/22 24/24/24

f 25/25/25 23/23/23 24/24/24

f 25/25/25 24/24/24 26/26/26

f 27/27/27 25/25/25 26/26/26

f 27/27/27 26/26/26 28/28/28

f 29/29/29 27/27/27 28/28/28

f 29/29/29 28/28/28 30/30/30

f 31/31/31 29/29/29 30/30/30

f 31/31/31 30/30/30 32/32/32

f 33/33/33 31/31/31 32/32/32

f 33/33/33 32/32/32 34/34/34

f 35/35/35 33/33/33 34/34/34

f 35/35/35 34/34/34 36/36/36

f 37/37/37 35/35/35 36/36/36

f 37/37/37 36/36/36 38/38/38

f 39/39/39 37/37/37 38/38/38

f 39/39/39 38/38/38 40/40/40

f 41/41/41 39/39/39 40/40/40

f 41/41/41 40/40/40 42/42/42

f 43/43/43 41/41/41 42/42/42

f 43/43/43 42/42/42 44/44/44

f 45/45/45 43/43/43 44/44/44

f 45/45/45 44/44/44 46/46/46

f 47/47/47 45/45/45 46/46/46

f 47/47/47 46/46/46 48/48/48

f 49/49/49 47/47/47 48/48/48

f 49/49/49 48/48/48 50/50/50

f 51/51/51 49/49/49 50/50/50

f 51/51/51 50/50/50 52/52/52

f 53/53/53 51/51/51 52/52/52

f 53/53/53 52/52/52 54/54/54

f 55/55/55 53/53/53 54/54/54

f 55/55/55 54/54/54 56/56/56

f 57/57/57 55/55/55 56/56/56

f 57/57/57 56/56/56 58/58/58

f 59/59/59 57/57/57 58/58/58

f 59/59/59 58/58/58 60/60/60

f 61/61/61 59/59/59 60/60/60

f 61/61/61 60/60/60 62/62/62

f 63/63/63 61/61/61 62/62/62

f 63/63/63 62/62/62 64/64/64

f 65/65/65 63/63/63 64/64/64

f 65/65/65 64/64/64 66/66/66

f 67/67/67 68/68/68 69/69/69

f 67/67/67 69/69/69 70/70/70

f 67/67/67 71/71/71 68/68/68

f 67/67/67 70/70/70 72/72/72

f 67/67/67 73/73/73 71/71/71

f 67/67/67 72/72/72 74/74/74

f 67/67/67 75/75/75 73/73/73

f 67/67/67 74/74/74 76/76/76

f 67/67/67 77/77/77 75/75/75

f 67/67/67 76/76/76 78/78/78

f 67/67/67 79/79/79 77/77/77

f 67/67/67 78/78/78 80/80/80

f 67/67/67 81/81/81 79/79/79

f 67/67/67 80/80/80 82/82/82

f 67/67/67 83/83/83 81/81/81

f 67/67/67 82/82/82 84/84/84

f 67/67/67 85/85/85 83/83/83

f 67/67/67 84/84/84 86/86/86

f 67/67/67 87/87/87 85/85/85

f 67/67/67 86/86/86 88/88/88

f 67/67/67 89/89/89 87/87/87

f 67/67/67 88/88/88 90/90/90

f 67/67/67 91/91/91 89/89/89

f 67/67/67 90/90/90 92/92/92

f 67/67/67 93/93/93 91/91/91

f 67/67/67 92/92/92 94/94/94

f 67/67/67 95/95/95 93/93/93

f 67/67/67 94/94/94 96/96/96

f 67/67/67 97/97/97 95/95/95

f 67/67/67 96/96/96 98/98/98

f 67/67/67 99/99/99 97/97/97

f 67/67/67 98/98/98 99/99/99

f 100/100/100 101/101/101 102/102/102

f 100/100/100 103/103/103 101/101/101

f 100/100/100 102/102/102 104/104/104

f 100/100/100 105/105/105 103/103/103

f 100/100/100 104/104/104 106/106/106

f 100/100/100 107/107/107 105/105/105

f 100/100/100 106/106/106 108/108/108

f 100/100/100 109/109/109 107/107/107

f 100/100/100 108/108/108 110/110/110

f 100/100/100 111/111/111 109/109/109

f 100/100/100 110/110/110 112/112/112

f 100/100/100 113/113/113 111/111/111

f 100/100/100 112/112/112 114/114/114

f 100/100/100 115/115/115 113/113/113

f 100/100/100 114/114/114 116/116/116

f 100/100/100 117/117/117 115/115/115

f 100/100/100 116/116/116 118/118/118

f 100/100/100 119/119/119 117/117/117

f 100/100/100 118/118/118 120/120/120

f 100/100/100 121/121/121 119/119/119

f 100/100/100 120/120/120 122/122/122

f 100/100/100 123/123/123 121/121/121

f 100/100/100 122/122/122 124/124/124

f 100/100/100 125/125/125 123/123/123

f 100/100/100 124/124/124 126/126/126

f 100/100/100 127/127/127 125/125/125

f 100/100/100 126/126/126 128/128/128

f 100/100/100 129/129/129 127/127/127

f 100/100/100 128/128/128 130/130/130

f 100/100/100 131/131/131 129/129/129

f 100/100/100 130/130/130 132/132/132

f 100/100/100 132/132/132 131/131/131

