# UnrealEd OBJ exporter (_Internal)



v -20.000000 0.000000 15.000000

v -20.000000 0.000000 -15.000000

v 20.000000 0.000000 -15.000000

v 20.000000 0.000000 15.000000

v -20.000000 10.000000 15.000000

v 20.000000 10.000000 15.000000

v 20.000000 10.000000 -15.000000

v -20.000000 10.000000 -15.000000

v -20.000000 0.000000 15.000000

v 20.000000 0.000000 15.000000

v 20.000000 10.000000 15.000000

v -20.000000 10.000000 15.000000

v 20.000000 0.000000 15.000000

v 20.000000 0.000000 -15.000000

v 20.000000 10.000000 -15.000000

v 20.000000 10.000000 15.000000

v 20.000000 0.000000 -15.000000

v -20.000000 0.000000 -15.000000

v -20.000000 10.000000 -15.000000

v 20.000000 10.000000 -15.000000

v -20.000000 0.000000 -15.000000

v -20.000000 0.000000 15.000000

v -20.000000 10.000000 15.000000

v -20.000000 10.000000 -15.000000



vt 0.566695 0.429288

vt 0.566695 0.853560

vt 0.001000 0.853560

vt 0.001000 0.429288

vt 0.001000 0.001000

vt 0.566695 0.001000

vt 0.566695 0.425271

vt 0.001000 0.425271

vt 0.854781 0.001000

vt 0.854781 0.566695

vt 0.713357 0.566695

vt 0.713357 0.001000

vt 0.001000 0.857576

vt 0.425271 0.857576

vt 0.425271 0.999000

vt 0.001000 0.999000

vt 0.710561 0.001000

vt 0.710561 0.566695

vt 0.569137 0.566695

vt 0.569137 0.001000

vt 0.719302 0.569137

vt 0.719302 0.993409

vt 0.577878 0.993409

vt 0.577878 0.569137



vn 0.000000 -1.000000 0.000000

vn 0.000000 -1.000000 0.000000

vn 0.000000 -1.000000 0.000000

vn 0.000000 -1.000000 0.000000

vn 0.000000 1.000000 0.000000

vn 0.000000 1.000000 0.000000

vn 0.000000 1.000000 0.000000

vn 0.000000 1.000000 0.000000

vn 0.000000 0.000000 1.000000

vn 0.000000 0.000000 1.000000

vn 0.000000 0.000000 1.000000

vn 0.000000 0.000000 1.000000

vn 1.000000 0.000000 0.000000

vn 1.000000 0.000000 0.000000

vn 1.000000 0.000000 0.000000

vn 1.000000 0.000000 0.000000

vn 0.000000 0.000000 -1.000000

vn 0.000000 0.000000 -1.000000

vn 0.000000 0.000000 -1.000000

vn 0.000000 0.000000 -1.000000

vn -1.000000 0.000000 0.000000

vn -1.000000 0.000000 0.000000

vn -1.000000 0.000000 0.000000

vn -1.000000 0.000000 0.000000

f 1/1/1 2/2/2 3/3/3

f 3/3/3 4/4/4 1/1/1

f 5/5/5 6/6/6 7/7/7

f 7/7/7 8/8/8 5/5/5

f 9/9/9 10/10/10 11/11/11

f 11/11/11 12/12/12 9/9/9

f 13/13/13 14/14/14 15/15/15

f 15/15/15 16/16/16 13/13/13

f 17/17/17 18/18/18 19/19/19

f 19/19/19 20/20/20 17/17/17

f 21/21/21 22/22/22 23/23/23

f 23/23/23 24/24/24 21/21/21

