# UnrealEd OBJ exporter (_Internal)



v -29.999949 8.577362 1.500014

v -29.999949 7.500032 1.500020

v -29.999949 7.500031 6.500011

v -29.999949 8.577367 6.500021

v -28.499949 8.577364 0.000017

v -28.499949 7.500036 0.000022

v -29.999949 7.500032 1.500020

v -29.999949 8.577362 1.500014

v 28.500051 8.577364 0.000017

v 28.500051 7.500036 0.000022

v -28.499949 7.500036 0.000022

v -28.499949 8.577364 0.000017

v 30.000051 8.577362 1.500014

v 30.000051 7.500032 1.500020

v 28.500051 7.500036 0.000022

v 28.500051 8.577364 0.000017

v 30.000051 8.577367 6.500021

v 30.000051 7.500031 6.500011

v 30.000051 7.500032 1.500020

v 30.000051 8.577362 1.500014

v -29.999949 8.577367 6.500021

v -28.499949 10.028259 6.549123

v -28.499949 10.077366 1.500019

v -29.999949 8.577362 1.500014

v -28.499949 8.626465 7.950910

v -29.999949 8.577367 6.500021

v -29.999949 7.500031 6.500011

v -28.499949 7.500039 8.000020

v 28.500051 10.077366 1.500019

v 28.500051 10.028259 6.549123

v 30.000051 8.577367 6.500021

v 30.000051 8.577362 1.500014

v 30.000051 8.577367 6.500021

v 28.500051 8.626465 7.950910

v 28.500051 7.500039 8.000020

v 30.000051 7.500031 6.500011

v -28.999949 7.500040 1.914227

v -29.999949 0.000032 1.500018

v -29.999949 0.000038 6.500025

v -28.999949 7.500038 6.085811

v -28.499949 0.000031 8.000026

v -28.085735 7.500023 7.000003

v 28.500051 0.000031 8.000026

v 28.085838 7.500023 7.000003

v 30.000051 0.000038 6.500025

v 29.000051 7.500038 6.085811

v -29.999949 0.000032 1.500018

v -28.999949 7.500040 1.914227

v -28.085735 7.500041 1.000028

v -28.499949 0.000025 0.000009

v 28.085838 7.500041 1.000028

v 28.500051 0.000025 0.000009

v 29.000051 7.500040 1.914227

v 30.000051 0.000032 1.500018

v 29.000051 7.500038 6.085811

v 30.000051 0.000038 6.500025

v -29.999949 8.577362 1.500014

v -28.499949 10.077366 1.500019

v -28.499949 8.577364 0.000017

v 28.500051 8.577364 0.000017

v 28.500051 10.077366 1.500019

v 30.000051 8.577362 1.500014

v -28.499949 10.028259 6.549123

v 0.000003 10.028276 6.548053

v 28.500051 10.028259 6.549123

v 0.500003 105.774994 121.430214

v 0.707110 105.391968 121.751610

v 1.000003 104.937454 121.209930

v 0.707110 105.479126 120.755409

v 1.000003 9.319953 7.257418

v 0.000003 105.933647 121.297089

v 0.707110 9.821866 6.755512

v 0.000003 105.703499 120.567146

v 0.000003 10.028276 6.548053

v -0.499997 105.774994 121.430214

v -0.707104 105.479126 120.755409

v -0.707104 9.821866 6.755512

v -0.707104 105.391968 121.751610

v -0.999997 104.937454 121.209930

v -0.999997 9.319953 7.257418

v -0.499997 105.008949 122.072998

v -0.707104 104.395775 121.664452

v -0.707104 8.818050 7.759336

v 0.000003 104.850296 122.206123

v 0.000003 104.171410 121.852722

v 0.000003 8.616582 7.951056

v 0.500003 105.008949 122.072998

v 0.707110 104.395775 121.664452

v 0.707110 105.391968 121.751610

v 0.707110 8.818050 7.759336

v 1.000003 104.937454 121.209930

v 1.000003 9.319953 7.257418

v 0.000003 105.580238 121.975975

v 0.000003 105.933647 121.297089

v -0.499997 105.008949 122.072998

v 0.500003 105.774994 121.430214

v 0.000003 104.850296 122.206123

v 0.707110 105.391968 121.751610

v 0.500003 105.008949 122.072998

v 0.000003 10.028276 6.548053

v -28.499949 10.028259 6.549123

v -0.707104 9.821866 6.755512

v -0.999997 9.319953 7.257418

v -0.707104 8.818050 7.759336

v 0.000003 8.616582 7.951056

v -28.499949 8.626465 7.950910

v -29.999949 8.577367 6.500021

v 28.500051 7.500039 8.000020

v -28.499949 7.500039 8.000020

v 28.500051 8.626465 7.950910

v 0.707110 8.818050 7.759336

v 1.000003 9.319953 7.257418

v 0.707110 9.821866 6.755512

v 0.000003 10.028276 6.548053

v 28.500051 10.028259 6.549123

v 30.000051 8.577367 6.500021

v 30.000051 0.000032 1.500018

v 30.000051 0.000038 6.500025

v 28.500051 0.000031 8.000026

v -28.499949 0.000025 0.000009

v 28.500051 0.000025 0.000009

v -29.999949 0.000038 6.500025

v -28.499949 0.000031 8.000026

v -29.999949 0.000032 1.500018

v 28.085838 7.500023 7.000003

v 28.500051 7.500039 8.000020

v -28.499949 7.500039 8.000020

v 29.000051 7.500038 6.085811

v -28.085735 7.500023 7.000003

v 30.000051 7.500031 6.500011

v -29.999949 7.500031 6.500011

v 29.000051 7.500040 1.914227

v -28.999949 7.500038 6.085811

v 30.000051 7.500032 1.500020

v -29.999949 7.500032 1.500020

v 28.085838 7.500041 1.000028

v -28.999949 7.500040 1.914227

v 28.500051 7.500036 0.000022

v -28.499949 7.500036 0.000022

v -28.085735 7.500041 1.000028



vt 0.790039 0.363770

vt 0.789551 0.350098

vt 0.854004 0.347656

vt 0.854492 0.361816

vt 0.760254 0.376953

vt 0.760254 0.363281

vt 0.787598 0.362305

vt 0.788086 0.375977

vt 0.093750 0.494629

vt 0.093750 0.482422

vt 0.934082 0.482422

vt 0.934082 0.494629

vt 0.854004 0.364258

vt 0.854492 0.378418

vt 0.827148 0.379395

vt 0.826660 0.365234

vt 0.722168 0.381836

vt 0.708496 0.382324

vt 0.706055 0.317871

vt 0.720215 0.317383

vt 0.790039 0.347656

vt 0.788086 0.320801

vt 0.853516 0.317383

vt 0.854492 0.344727

vt 0.677734 0.318359

vt 0.705078 0.317383

vt 0.705566 0.331055

vt 0.678711 0.333008

vt 0.722656 0.318359

vt 0.787598 0.317383

vt 0.788086 0.344238

vt 0.723145 0.345703

vt 0.759766 0.348145

vt 0.786621 0.346191

vt 0.788086 0.360840

vt 0.760742 0.361816

vt 0.999023 0.000977

vt 0.999023 0.093750

vt 0.937012 0.094238

vt 0.936523 0.000977

vt 0.911133 0.094238

vt 0.911133 0.000977

vt 0.078857 0.094238

vt 0.078491 0.000977

vt 0.054779 0.094238

vt 0.054779 0.000977

vt 0.936523 0.184082

vt 0.936523 0.264648

vt 0.911133 0.265137

vt 0.911133 0.183594

vt 0.078491 0.265137

vt 0.078857 0.183594

vt 0.054779 0.264648

vt 0.054779 0.184082

vt 0.000500 0.264648

vt 0.000848 0.183594

vt 0.943848 0.413086

vt 0.922852 0.426758

vt 0.922852 0.396973

vt 0.114990 0.396973

vt 0.114990 0.426758

vt 0.093750 0.413086

vt 0.922852 0.480957

vt 0.518555 0.480957

vt 0.114990 0.480957

vt 0.985352 0.599121

vt 0.985352 0.604736

vt 0.975586 0.604492

vt 0.975586 0.599121

vt 0.019287 0.604492

vt 0.985352 0.594727

vt 0.010704 0.599121

vt 0.975586 0.594482

vt 0.002338 0.594482

vt 0.985352 0.590088

vt 0.975586 0.589844

vt 0.010704 0.589844

vt 0.985352 0.583984

vt 0.975586 0.584473

vt 0.015198 0.584473

vt 0.985352 0.579590

vt 0.975586 0.579590

vt 0.009460 0.579590

vt 0.985352 0.574951

vt 0.975586 0.574951

vt 0.007534 0.574951

vt 0.985352 0.570312

vt 0.975586 0.570068

vt 0.985352 0.565186

vt 0.006397 0.570068

vt 0.975586 0.565186

vt 0.004963 0.565186

vt 0.993652 0.587158

vt 0.990234 0.595215

vt 0.990234 0.578857

vt 0.997070 0.595215

vt 0.997070 0.578857

vt 1.001953 0.590332

vt 1.001953 0.583740

vt 0.497314 0.496094

vt 0.880371 0.496094

vt 0.506836 0.500000

vt 0.510742 0.509277

vt 0.506836 0.518799

vt 0.497314 0.522461

vt 0.880371 0.522461

vt 0.900879 0.510254

vt 0.113892 0.534424

vt 0.880371 0.534424

vt 0.113892 0.522461

vt 0.487793 0.518799

vt 0.483643 0.509277

vt 0.487793 0.500000

vt 0.497314 0.496094

vt 0.113892 0.496094

vt 0.093750 0.510254

vt 0.056976 0.166992

vt 0.056976 0.110840

vt 0.078857 0.094238

vt 0.911133 0.183594

vt 0.078857 0.183594

vt 0.932617 0.110840

vt 0.911133 0.094238

vt 0.932617 0.166992

vt 0.950195 0.383789

vt 0.956543 0.395020

vt 0.115845 0.395020

vt 0.963867 0.373535

vt 0.121948 0.383789

vt 0.978516 0.377930

vt 0.093750 0.377930

vt 0.963867 0.326172

vt 0.108459 0.373535

vt 0.978516 0.321289

vt 0.093750 0.321289

vt 0.950195 0.315918

vt 0.108459 0.326172

vt 0.956543 0.304688

vt 0.115845 0.304688

vt 0.121948 0.315918



vn -1.000000 0.000000 0.000000

vn -1.000000 0.000000 0.000000

vn -1.000000 0.000000 0.000000

vn -1.000000 0.000000 0.000000

vn -0.338583 0.338583 -0.874016

vn -0.385827 0.000000 -0.921260

vn -0.708661 0.000000 -0.708661

vn -0.755906 0.456693 -0.456693

vn 0.338583 0.338583 -0.874016

vn 0.385827 0.000000 -0.921260

vn -0.385827 0.000000 -0.921260

vn -0.338583 0.338583 -0.874016

vn 0.755906 0.456693 -0.456693

vn 0.708661 0.000000 -0.708661

vn 0.385827 0.000000 -0.921260

vn 0.338583 0.338583 -0.874016

vn 1.000000 0.000000 0.000000

vn 1.000000 0.000000 0.000000

vn 1.000000 0.000000 0.000000

vn 1.000000 0.000000 0.000000

vn -0.755906 0.464567 0.464567

vn -0.338583 0.874016 0.346457

vn -0.338583 0.874016 -0.338583

vn -0.755906 0.456693 -0.456693

vn -0.338583 0.362205 0.866142

vn -0.755906 0.464567 0.464567

vn -0.700787 0.007874 0.716535

vn -0.377953 0.039370 0.921260

vn 0.338583 0.874016 -0.338583

vn 0.338583 0.874016 0.346457

vn 0.755906 0.464567 0.464567

vn 0.755906 0.456693 -0.456693

vn 0.755906 0.464567 0.464567

vn 0.338583 0.362205 0.866142

vn 0.370079 0.031496 0.929134

vn 0.708661 0.000000 0.708661

vn -0.913386 0.141732 -0.377953

vn -0.913386 0.141732 -0.377953

vn -0.913386 0.141732 0.377953

vn -0.913386 0.141732 0.377953

vn -0.377953 0.141732 0.913386

vn -0.377953 0.141732 0.913386

vn 0.377953 0.141732 0.913386

vn 0.377953 0.141732 0.913386

vn 0.913386 0.141732 0.377953

vn 0.913386 0.141732 0.377953

vn -0.913386 0.141732 -0.377953

vn -0.913386 0.141732 -0.377953

vn -0.377953 0.141732 -0.913386

vn -0.377953 0.141732 -0.913386

vn 0.377953 0.141732 -0.913386

vn 0.377953 0.141732 -0.913386

vn 0.913386 0.141732 -0.377953

vn 0.913386 0.141732 -0.377953

vn 0.913386 0.141732 0.377953

vn 0.913386 0.141732 0.377953

vn -0.755906 0.456693 -0.456693

vn -0.338583 0.874016 -0.338583

vn -0.338583 0.338583 -0.874016

vn 0.338583 0.338583 -0.874016

vn 0.338583 0.874016 -0.338583

vn 0.755906 0.456693 -0.456693

vn -0.338583 0.874016 0.346457

vn 0.000000 0.984252 0.157480

vn 0.338583 0.874016 0.346457

vn 0.527559 0.834646 0.165354

vn 0.748031 0.425197 0.511811

vn 0.984252 0.118110 0.141732

vn 0.692913 0.653543 -0.307087

vn 1.000000 0.015748 -0.015748

vn 0.000000 1.000000 0.023622

vn 0.692913 0.551181 -0.464567

vn 0.000000 0.874016 -0.488189

vn 0.000000 0.763780 -0.645669

vn -0.527559 0.834646 0.165354

vn -0.692913 0.653543 -0.307087

vn -0.692913 0.551181 -0.464567

vn -0.748031 0.425197 0.511811

vn -0.984252 0.118110 0.141732

vn -1.000000 0.015748 -0.015748

vn -0.527559 0.023622 0.850394

vn -0.692913 -0.409449 0.590551

vn -0.708661 -0.535433 0.448819

vn 0.000000 -0.149606 0.992126

vn 0.000000 -0.629921 0.771654

vn 0.000000 -0.763780 0.645669

vn 0.527559 0.023622 0.850394

vn 0.692913 -0.409449 0.590551

vn 0.748031 0.425197 0.511811

vn 0.708661 -0.535433 0.448819

vn 0.984252 0.118110 0.141732

vn 1.000000 0.015748 -0.015748

vn 0.000000 0.645669 0.763780

vn 0.000000 1.000000 0.023622

vn -0.527559 0.023622 0.850394

vn 0.527559 0.834646 0.165354

vn 0.000000 -0.149606 0.992126

vn 0.748031 0.425197 0.511811

vn 0.527559 0.023622 0.850394

vn 0.000000 0.984252 0.157480

vn -0.338583 0.874016 0.346457

vn 0.000000 0.708661 0.708661

vn 0.000000 0.708661 0.708661

vn 0.000000 0.692913 0.724409

vn 0.000000 0.173228 0.984252

vn -0.338583 0.362205 0.866142

vn -0.755906 0.464567 0.464567

vn 0.370079 0.031496 0.929134

vn -0.377953 0.039370 0.921260

vn 0.338583 0.362205 0.866142

vn 0.000000 0.692913 0.716535

vn 0.000000 0.708661 0.708661

vn 0.000000 0.708661 0.708661

vn 0.000000 0.984252 0.157480

vn 0.338583 0.874016 0.346457

vn 0.755906 0.464567 0.464567

vn 0.000000 -1.000000 0.000000

vn 0.000000 -1.000000 0.000000

vn 0.000000 -1.000000 0.000000

vn 0.000000 -1.000000 0.000000

vn 0.000000 -1.000000 0.000000

vn 0.000000 -1.000000 0.000000

vn 0.000000 -1.000000 0.000000

vn 0.000000 -1.000000 0.000000

vn 0.000000 -1.000000 0.000000

vn 0.000000 -1.000000 0.000000

vn 0.000000 -1.000000 0.000000

vn 0.000000 -1.000000 0.000000

vn 0.000000 -1.000000 0.000000

vn 0.000000 -1.000000 0.000000

vn 0.000000 -1.000000 0.000000

vn 0.000000 -1.000000 0.000000

vn 0.000000 -1.000000 0.000000

vn 0.000000 -1.000000 0.000000

vn 0.000000 -1.000000 0.000000

vn 0.000000 -1.000000 0.000000

vn 0.000000 -1.000000 0.000000

vn 0.000000 -1.000000 0.000000

vn 0.000000 -1.000000 0.000000

vn 0.000000 -1.000000 0.000000

f 1/1/1 2/2/2 3/3/3

f 3/3/3 4/4/4 1/1/1

f 5/5/5 6/6/6 7/7/7

f 7/7/7 8/8/8 5/5/5

f 9/9/9 10/10/10 11/11/11

f 11/11/11 12/12/12 9/9/9

f 13/13/13 14/14/14 15/15/15

f 15/15/15 16/16/16 13/13/13

f 17/17/17 18/18/18 19/19/19

f 19/19/19 20/20/20 17/17/17

f 21/21/21 22/22/22 23/23/23

f 23/23/23 24/24/24 21/21/21

f 25/25/25 26/26/26 27/27/27

f 27/27/27 28/28/28 25/25/25

f 29/29/29 30/30/30 31/31/31

f 31/31/31 32/32/32 29/29/29

f 33/33/33 34/34/34 35/35/35

f 35/35/35 36/36/36 33/33/33

f 37/37/37 38/38/38 39/39/39

f 39/39/39 40/40/40 37/37/37

f 40/40/40 39/39/39 41/41/41

f 41/41/41 42/42/42 40/40/40

f 42/42/42 41/41/41 43/43/43

f 43/43/43 44/44/44 42/42/42

f 44/44/44 43/43/43 45/45/45

f 45/45/45 46/46/46 44/44/44

f 47/47/47 48/48/48 49/49/49

f 49/49/49 50/50/50 47/47/47

f 50/50/50 49/49/49 51/51/51

f 51/51/51 52/52/52 50/50/50

f 52/52/52 51/51/51 53/53/53

f 53/53/53 54/54/54 52/52/52

f 54/54/54 53/53/53 55/55/55

f 55/55/55 56/56/56 54/54/54

f 57/57/57 58/58/58 59/59/59

f 60/60/60 59/59/59 58/58/58

f 58/58/58 61/61/61 60/60/60

f 60/60/60 61/61/61 62/62/62

f 61/61/61 58/58/58 63/63/63

f 64/64/64 61/61/61 63/63/63

f 64/64/64 65/65/65 61/61/61

f 66/66/66 67/67/67 68/68/68

f 68/68/68 69/69/69 66/66/66

f 69/69/69 68/68/68 70/70/70

f 71/71/71 66/66/66 69/69/69

f 70/70/70 72/72/72 69/69/69

f 69/69/69 73/73/73 71/71/71

f 73/73/73 69/69/69 72/72/72

f 72/72/72 74/74/74 73/73/73

f 75/75/75 71/71/71 73/73/73

f 76/76/76 73/73/73 74/74/74

f 73/73/73 76/76/76 75/75/75

f 74/74/74 77/77/77 76/76/76

f 78/78/78 75/75/75 76/76/76

f 79/79/79 76/76/76 77/77/77

f 76/76/76 79/79/79 78/78/78

f 77/77/77 80/80/80 79/79/79

f 81/81/81 78/78/78 79/79/79

f 82/82/82 79/79/79 80/80/80

f 79/79/79 82/82/82 81/81/81

f 80/80/80 83/83/83 82/82/82

f 84/84/84 81/81/81 82/82/82

f 85/85/85 82/82/82 83/83/83

f 82/82/82 85/85/85 84/84/84

f 83/83/83 86/86/86 85/85/85

f 87/87/87 84/84/84 85/85/85

f 88/88/88 85/85/85 86/86/86

f 85/85/85 88/88/88 87/87/87

f 89/89/89 87/87/87 88/88/88

f 86/86/86 90/90/90 88/88/88

f 88/88/88 91/91/91 89/89/89

f 91/91/91 88/88/88 90/90/90

f 90/90/90 92/92/92 91/91/91

f 93/93/93 75/75/75 78/78/78

f 93/93/93 94/94/94 75/75/75

f 93/93/93 78/78/78 95/95/95

f 93/93/93 96/96/96 94/94/94

f 93/93/93 95/95/95 97/97/97

f 93/93/93 98/98/98 96/96/96

f 93/93/93 97/97/97 99/99/99

f 93/93/93 99/99/99 98/98/98

f 100/100/100 101/101/101 102/102/102

f 101/101/101 103/103/103 102/102/102

f 101/101/101 104/104/104 103/103/103

f 101/101/101 105/105/105 104/104/104

f 106/106/106 101/101/101 107/107/107

f 101/101/101 106/106/106 105/105/105

f 108/108/108 106/106/106 109/109/109

f 108/108/108 105/105/105 106/106/106

f 108/108/108 110/110/110 105/105/105

f 110/110/110 111/111/111 105/105/105

f 110/110/110 112/112/112 111/111/111

f 110/110/110 113/113/113 112/112/112

f 110/110/110 114/114/114 113/113/113

f 110/110/110 115/115/115 114/114/114

f 116/116/116 115/115/115 110/110/110

f 117/117/117 118/118/118 119/119/119

f 117/117/117 120/120/120 121/121/121

f 117/117/117 119/119/119 120/120/120

f 119/119/119 122/122/122 120/120/120

f 119/119/119 123/123/123 122/122/122

f 122/122/122 124/124/124 120/120/120

f 125/125/125 126/126/126 127/127/127

f 126/126/126 125/125/125 128/128/128

f 127/127/127 129/129/129 125/125/125

f 128/128/128 130/130/130 126/126/126

f 129/129/129 127/127/127 131/131/131

f 130/130/130 128/128/128 132/132/132

f 131/131/131 133/133/133 129/129/129

f 132/132/132 134/134/134 130/130/130

f 133/133/133 131/131/131 135/135/135

f 134/134/134 132/132/132 136/136/136

f 135/135/135 137/137/137 133/133/133

f 136/136/136 138/138/138 134/134/134

f 137/137/137 135/135/135 139/139/139

f 138/138/138 136/136/136 140/140/140

f 139/139/139 140/140/140 137/137/137

f 140/140/140 139/139/139 138/138/138

