# UnrealEd OBJ exporter (_Internal)



v -120.000000 0.999998 56.000000

v 120.000000 0.999998 56.000000

v 120.000000 0.999998 -56.000000

v -120.000000 0.999998 -56.000000

v -120.000000 -1.500002 56.000000

v 120.000000 -1.500002 56.000000

v 120.000000 0.999998 56.000000

v -120.000000 0.999998 56.000000

v 120.000000 -1.500002 -56.000000

v -120.000000 -1.500002 -56.000000

v -120.000000 0.999998 -56.000000

v 120.000000 0.999998 -56.000000



vt 0.000500 0.018066

vt 0.999023 0.018066

vt 0.999023 0.484375

vt 0.000500 0.484375

vt 0.000500 0.007812

vt 0.999023 0.007812

vt 0.999023 0.018066

vt 0.000500 0.018066

vt 0.999023 0.494629

vt 0.000500 0.494629

vt 0.000500 0.484375

vt 0.999023 0.484375



vn 0.000000 1.000000 0.000000

vn 0.000000 1.000000 0.000000

vn 0.000000 1.000000 0.000000

vn 0.000000 1.000000 0.000000

vn 0.000000 0.000000 1.000000

vn 0.000000 0.000000 1.000000

vn 0.000000 0.000000 1.000000

vn 0.000000 0.000000 1.000000

vn 0.000000 0.000000 -1.000000

vn 0.000000 0.000000 -1.000000

vn 0.000000 0.000000 -1.000000

vn 0.000000 0.000000 -1.000000

f 1/1/1 2/2/2 3/3/3

f 3/3/3 4/4/4 1/1/1

f 5/5/5 6/6/6 7/7/7

f 7/7/7 8/8/8 5/5/5

f 9/9/9 10/10/10 11/11/11

f 11/11/11 12/12/12 9/9/9

