# UnrealEd OBJ exporter (_Internal)



v -15.000000 0.000000 15.000000

v -15.000000 0.000000 -15.000000

v 15.000000 0.000000 -15.000000

v 15.000000 0.000000 15.000000

v -15.000000 60.000000 15.000000

v 15.000000 60.000000 15.000000

v 15.000000 60.000000 -15.000000

v -15.000000 60.000000 -15.000000

v -15.000000 0.000000 15.000000

v 15.000000 0.000000 15.000000

v 15.000000 60.000000 15.000000

v -15.000000 60.000000 15.000000

v 15.000000 0.000000 15.000000

v 15.000000 0.000000 -15.000000

v 15.000000 60.000000 -15.000000

v 15.000000 60.000000 15.000000

v 15.000000 0.000000 -15.000000

v -15.000000 0.000000 -15.000000

v -15.000000 60.000000 -15.000000

v 15.000000 60.000000 -15.000000

v -15.000000 0.000000 -15.000000

v -15.000000 0.000000 15.000000

v -15.000000 60.000000 15.000000

v -15.000000 60.000000 -15.000000



vt 0.752441 0.252441

vt 0.752441 0.501221

vt 0.503418 0.501221

vt 0.503418 0.252441

vt 0.752441 0.250000

vt 0.503418 0.250000

vt 0.503418 0.001465

vt 0.752441 0.001465

vt 0.000999 0.501221

vt 0.249878 0.501221

vt 0.249878 0.999001

vt 0.000999 0.999001

vt 0.000999 0.001465

vt 0.249878 0.001465

vt 0.249878 0.499023

vt 0.000999 0.499023

vt 0.500977 0.499023

vt 0.252197 0.499023

vt 0.252197 0.001465

vt 0.500977 0.001465

vt 0.500977 0.999001

vt 0.252197 0.999001

vt 0.252197 0.501221

vt 0.500977 0.501221



vn 0.000000 -1.000000 0.000000

vn 0.000000 -1.000000 0.000000

vn 0.000000 -1.000000 0.000000

vn 0.000000 -1.000000 0.000000

vn 0.000000 1.000000 0.000000

vn 0.000000 1.000000 0.000000

vn 0.000000 1.000000 0.000000

vn 0.000000 1.000000 0.000000

vn 0.000000 0.000000 1.000000

vn 0.000000 0.000000 1.000000

vn 0.000000 0.000000 1.000000

vn 0.000000 0.000000 1.000000

vn 1.000000 0.000000 0.000000

vn 1.000000 0.000000 0.000000

vn 1.000000 0.000000 0.000000

vn 1.000000 0.000000 0.000000

vn 0.000000 0.000000 -1.000000

vn 0.000000 0.000000 -1.000000

vn 0.000000 0.000000 -1.000000

vn 0.000000 0.000000 -1.000000

vn -1.000000 0.000000 0.000000

vn -1.000000 0.000000 0.000000

vn -1.000000 0.000000 0.000000

vn -1.000000 0.000000 0.000000

f 1/1/1 2/2/2 3/3/3

f 3/3/3 4/4/4 1/1/1

f 5/5/5 6/6/6 7/7/7

f 7/7/7 8/8/8 5/5/5

f 9/9/9 10/10/10 11/11/11

f 11/11/11 12/12/12 9/9/9

f 13/13/13 14/14/14 15/15/15

f 15/15/15 16/16/16 13/13/13

f 17/17/17 18/18/18 19/19/19

f 19/19/19 20/20/20 17/17/17

f 21/21/21 22/22/22 23/23/23

f 23/23/23 24/24/24 21/21/21

