# UnrealEd OBJ exporter (_Internal)



v 12.340858 0.000000 7.125009

v 13.764441 0.000000 3.688181

v 14.488885 35.000000 3.882296

v 12.990376 35.000000 7.500009

v 10.076265 0.000000 10.076278

v 10.606595 35.000000 10.606608

v 7.124993 0.000000 12.340866

v 7.499992 35.000000 12.990385

v 3.688164 0.000000 13.764444

v 3.882278 35.000000 14.488889

v -0.000007 0.000000 14.250000

v -0.000007 35.000000 15.000000

v -3.688177 0.000000 13.764441

v -3.882292 35.000000 14.488886

v -7.125004 0.000000 12.340859

v -7.500004 35.000000 12.990378

v -10.076277 0.000000 10.076266

v -10.606607 35.000000 10.606596

v -12.340865 0.000000 7.124994

v -12.990384 35.000000 7.499994

v -13.764444 0.000000 3.688165

v -14.488889 35.000000 3.882279

v -14.250000 0.000000 -0.000006

v -15.000000 35.000000 -0.000006

v -13.764441 0.000000 -3.688176

v -14.488886 35.000000 -3.882291

v -12.340860 0.000000 -7.125003

v -12.990379 35.000000 -7.500004

v -10.076269 0.000000 -10.076274

v -10.606599 35.000000 -10.606605

v -7.124998 0.000000 -12.340863

v -7.499998 35.000000 -12.990382

v -3.688170 0.000000 -13.764443

v -3.882284 35.000000 -14.488888

v 0.000001 0.000000 -14.250000

v 0.000001 35.000000 -15.000000

v 3.688172 0.000000 -13.764442

v 3.882286 35.000000 -14.488887

v 7.125000 0.000000 -12.340862

v 7.500000 35.000000 -12.990381

v 10.076271 0.000000 -10.076271

v 10.606602 35.000000 -10.606602

v 12.340862 0.000000 -7.125000

v 12.990381 35.000000 -7.500000

v 13.764442 0.000000 -3.688171

v 14.488887 35.000000 -3.882286

v 14.250000 0.000000 -0.000000

v 15.000000 35.000000 -0.000000

v 13.764441 0.000000 3.688181

v 14.488885 35.000000 3.882296

v -0.000000 0.000000 -0.000000

v 13.764442 0.000000 -3.688171

v 14.250000 0.000000 -0.000000

v 13.764441 0.000000 3.688181

v 12.340862 0.000000 -7.125000

v 12.340858 0.000000 7.125009

v 10.076271 0.000000 -10.076271

v 10.076265 0.000000 10.076278

v 7.125000 0.000000 -12.340862

v 7.124993 0.000000 12.340866

v 3.688172 0.000000 -13.764442

v 3.688164 0.000000 13.764444

v 0.000001 0.000000 -14.250000

v -0.000007 0.000000 14.250000

v -3.688170 0.000000 -13.764443

v -3.688177 0.000000 13.764441

v -7.124998 0.000000 -12.340863

v -7.125004 0.000000 12.340859

v -10.076269 0.000000 -10.076274

v -10.076277 0.000000 10.076266

v -12.340860 0.000000 -7.125003

v -12.340865 0.000000 7.124994

v -13.764441 0.000000 -3.688176

v -13.764444 0.000000 3.688165

v -14.250000 0.000000 -0.000006

v 0.000000 35.000000 -0.000000

v 15.000000 35.000000 -0.000000

v 14.488887 35.000000 -3.882286

v 14.488885 35.000000 3.882296

v 12.990381 35.000000 -7.500000

v 12.990376 35.000000 7.500009

v 10.606602 35.000000 -10.606602

v 10.606595 35.000000 10.606608

v 7.500000 35.000000 -12.990381

v 7.499992 35.000000 12.990385

v 3.882286 35.000000 -14.488887

v 3.882278 35.000000 14.488889

v 0.000001 35.000000 -15.000000

v -0.000007 35.000000 15.000000

v -3.882284 35.000000 -14.488888

v -3.882292 35.000000 14.488886

v -7.499998 35.000000 -12.990382

v -7.500004 35.000000 12.990378

v -10.606599 35.000000 -10.606605

v -10.606607 35.000000 10.606596

v -12.990379 35.000000 -7.500004

v -12.990384 35.000000 7.499994

v -14.488886 35.000000 -3.882291

v -14.488889 35.000000 3.882279

v -15.000000 35.000000 -0.000006



vt 0.935547 0.604248

vt 0.975098 0.601807

vt 0.999023 0.971817

vt 0.958008 0.974426

vt 0.896484 0.606445

vt 0.916504 0.976791

vt 0.856934 0.608398

vt 0.875000 0.978943

vt 0.817383 0.610352

vt 0.833496 0.980850

vt 0.778320 0.611816

vt 0.791992 0.982529

vt 0.738770 0.613281

vt 0.750488 0.983963

vt 0.699219 0.614502

vt 0.708984 0.985176

vt 0.659668 0.615234

vt 0.667480 0.986160

vt 0.620605 0.615967

vt 0.625977 0.986908

vt 0.581055 0.616455

vt 0.584473 0.987419

vt 0.541504 0.616943

vt 0.542969 0.987709

vt 0.502441 0.616943

vt 0.501465 0.987762

vt 0.462891 0.616699

vt 0.460205 0.987579

vt 0.423584 0.616211

vt 0.418701 0.987167

vt 0.384033 0.615723

vt 0.377197 0.986526

vt 0.344727 0.614990

vt 0.335693 0.985649

vt 0.305176 0.613770

vt 0.294189 0.984543

vt 0.265869 0.612549

vt 0.252930 0.983200

vt 0.226440 0.611084

vt 0.211426 0.981628

vt 0.187134 0.609375

vt 0.169922 0.979828

vt 0.147705 0.607422

vt 0.128540 0.977798

vt 0.108398 0.605225

vt 0.087097 0.975525

vt 0.069031 0.602783

vt 0.045685 0.973022

vt 0.029739 0.600342

vt 0.004292 0.970291

vt 0.844727 0.150391

vt 0.694824 0.168945

vt 0.695312 0.129395

vt 0.705566 0.091797

vt 0.704590 0.207031

vt 0.725586 0.057617

vt 0.724121 0.241699

vt 0.753906 0.029785

vt 0.751953 0.269531

vt 0.788086 0.010742

vt 0.785645 0.289551

vt 0.826172 0.000977

vt 0.823730 0.300293

vt 0.865723 0.000977

vt 0.863281 0.300293

vt 0.903809 0.011719

vt 0.901367 0.290527

vt 0.937500 0.031738

vt 0.935547 0.271484

vt 0.965332 0.059570

vt 0.963867 0.243652

vt 0.984863 0.094238

vt 0.983887 0.209473

vt 0.994629 0.132324

vt 0.994141 0.171875

vt 0.158203 0.158691

vt 0.177612 0.316406

vt 0.136108 0.315918

vt 0.217773 0.306152

vt 0.096130 0.304688

vt 0.253906 0.285645

vt 0.060394 0.283691

vt 0.283447 0.256348

vt 0.031311 0.254395

vt 0.304443 0.220703

vt 0.010887 0.218262

vt 0.315674 0.180664

vt 0.000500 0.177734

vt 0.315918 0.139160

vt 0.000862 0.136230

vt 0.305664 0.099121

vt 0.011948 0.096191

vt 0.285156 0.062988

vt 0.032990 0.060547

vt 0.256104 0.033203

vt 0.062561 0.031738

vt 0.220337 0.012207

vt 0.098694 0.011230

vt 0.180298 0.000977

vt 0.138794 0.000977



vn 0.866142 -0.023622 0.496063

vn 0.968504 -0.023622 0.259843

vn 0.968504 -0.023622 0.259843

vn 0.866142 -0.023622 0.496063

vn 0.708661 -0.023622 0.708661

vn 0.708661 -0.023622 0.708661

vn 0.496063 -0.023622 0.866142

vn 0.496063 -0.023622 0.866142

vn 0.259843 -0.023622 0.968504

vn 0.259843 -0.023622 0.968504

vn 0.000000 -0.023622 1.000000

vn 0.000000 -0.023622 1.000000

vn -0.259843 -0.023622 0.968504

vn -0.259843 -0.023622 0.968504

vn -0.496063 -0.023622 0.866142

vn -0.496063 -0.023622 0.866142

vn -0.708661 -0.023622 0.708661

vn -0.708661 -0.023622 0.708661

vn -0.866142 -0.023622 0.496063

vn -0.866142 -0.023622 0.496063

vn -0.968504 -0.023622 0.259843

vn -0.968504 -0.023622 0.259843

vn -1.000000 -0.023622 0.000000

vn -1.000000 -0.023622 0.000000

vn -0.968504 -0.023622 -0.259843

vn -0.968504 -0.023622 -0.259843

vn -0.866142 -0.023622 -0.496063

vn -0.866142 -0.023622 -0.496063

vn -0.708661 -0.023622 -0.708661

vn -0.708661 -0.023622 -0.708661

vn -0.496063 -0.023622 -0.866142

vn -0.496063 -0.023622 -0.866142

vn -0.259843 -0.023622 -0.968504

vn -0.259843 -0.023622 -0.968504

vn 0.000000 -0.023622 -1.000000

vn 0.000000 -0.023622 -1.000000

vn 0.259843 -0.023622 -0.968504

vn 0.259843 -0.023622 -0.968504

vn 0.496063 -0.023622 -0.866142

vn 0.496063 -0.023622 -0.866142

vn 0.708661 -0.023622 -0.708661

vn 0.708661 -0.023622 -0.708661

vn 0.866142 -0.023622 -0.496063

vn 0.866142 -0.023622 -0.496063

vn 0.968504 -0.023622 -0.259843

vn 0.968504 -0.023622 -0.259843

vn 1.000000 -0.023622 0.000000

vn 1.000000 -0.023622 0.000000

vn 0.968504 -0.023622 0.259843

vn 0.968504 -0.023622 0.259843

vn 0.000000 -1.000000 0.000000

vn 0.000000 -1.000000 0.000000

vn 0.000000 -1.000000 0.000000

vn 0.000000 -1.000000 0.000000

vn 0.000000 -1.000000 0.000000

vn 0.000000 -1.000000 0.000000

vn 0.000000 -1.000000 0.000000

vn 0.000000 -1.000000 0.000000

vn 0.000000 -1.000000 0.000000

vn 0.000000 -1.000000 0.000000

vn 0.000000 -1.000000 0.000000

vn 0.000000 -1.000000 0.000000

vn 0.000000 -1.000000 0.000000

vn 0.000000 -1.000000 0.000000

vn 0.000000 -1.000000 0.000000

vn 0.000000 -1.000000 0.000000

vn 0.000000 -1.000000 0.000000

vn 0.000000 -1.000000 0.000000

vn 0.000000 -1.000000 0.000000

vn 0.000000 -1.000000 0.000000

vn 0.000000 -1.000000 0.000000

vn 0.000000 -1.000000 0.000000

vn 0.000000 -1.000000 0.000000

vn 0.000000 -1.000000 0.000000

vn 0.000000 -1.000000 0.000000

vn 0.000000 1.000000 0.000000

vn 0.000000 1.000000 0.000000

vn 0.000000 1.000000 0.000000

vn 0.000000 1.000000 0.000000

vn 0.000000 1.000000 0.000000

vn 0.000000 1.000000 0.000000

vn 0.000000 1.000000 0.000000

vn 0.000000 1.000000 0.000000

vn 0.000000 1.000000 0.000000

vn 0.000000 1.000000 0.000000

vn 0.000000 1.000000 0.000000

vn 0.000000 1.000000 0.000000

vn 0.000000 1.000000 0.000000

vn 0.000000 1.000000 0.000000

vn 0.000000 1.000000 0.000000

vn 0.000000 1.000000 0.000000

vn 0.000000 1.000000 0.000000

vn 0.000000 1.000000 0.000000

vn 0.000000 1.000000 0.000000

vn 0.000000 1.000000 0.000000

vn 0.000000 1.000000 0.000000

vn 0.000000 1.000000 0.000000

vn 0.000000 1.000000 0.000000

vn 0.000000 1.000000 0.000000

vn 0.000000 1.000000 0.000000

f 1/1/1 2/2/2 3/3/3

f 1/1/1 3/3/3 4/4/4

f 5/5/5 1/1/1 4/4/4

f 5/5/5 4/4/4 6/6/6

f 7/7/7 5/5/5 6/6/6

f 7/7/7 6/6/6 8/8/8

f 9/9/9 7/7/7 8/8/8

f 9/9/9 8/8/8 10/10/10

f 11/11/11 9/9/9 10/10/10

f 11/11/11 10/10/10 12/12/12

f 13/13/13 11/11/11 12/12/12

f 13/13/13 12/12/12 14/14/14

f 15/15/15 13/13/13 14/14/14

f 15/15/15 14/14/14 16/16/16

f 17/17/17 15/15/15 16/16/16

f 17/17/17 16/16/16 18/18/18

f 19/19/19 17/17/17 18/18/18

f 19/19/19 18/18/18 20/20/20

f 21/21/21 19/19/19 20/20/20

f 21/21/21 20/20/20 22/22/22

f 23/23/23 21/21/21 22/22/22

f 23/23/23 22/22/22 24/24/24

f 25/25/25 23/23/23 24/24/24

f 25/25/25 24/24/24 26/26/26

f 27/27/27 25/25/25 26/26/26

f 27/27/27 26/26/26 28/28/28

f 29/29/29 27/27/27 28/28/28

f 29/29/29 28/28/28 30/30/30

f 31/31/31 29/29/29 30/30/30

f 31/31/31 30/30/30 32/32/32

f 33/33/33 31/31/31 32/32/32

f 33/33/33 32/32/32 34/34/34

f 35/35/35 33/33/33 34/34/34

f 35/35/35 34/34/34 36/36/36

f 37/37/37 35/35/35 36/36/36

f 37/37/37 36/36/36 38/38/38

f 39/39/39 37/37/37 38/38/38

f 39/39/39 38/38/38 40/40/40

f 41/41/41 39/39/39 40/40/40

f 41/41/41 40/40/40 42/42/42

f 43/43/43 41/41/41 42/42/42

f 43/43/43 42/42/42 44/44/44

f 45/45/45 43/43/43 44/44/44

f 45/45/45 44/44/44 46/46/46

f 47/47/47 45/45/45 46/46/46

f 47/47/47 46/46/46 48/48/48

f 49/49/49 47/47/47 48/48/48

f 49/49/49 48/48/48 50/50/50

f 51/51/51 52/52/52 53/53/53

f 51/51/51 53/53/53 54/54/54

f 51/51/51 55/55/55 52/52/52

f 51/51/51 54/54/54 56/56/56

f 51/51/51 57/57/57 55/55/55

f 51/51/51 56/56/56 58/58/58

f 51/51/51 59/59/59 57/57/57

f 51/51/51 58/58/58 60/60/60

f 51/51/51 61/61/61 59/59/59

f 51/51/51 60/60/60 62/62/62

f 51/51/51 63/63/63 61/61/61

f 51/51/51 62/62/62 64/64/64

f 51/51/51 65/65/65 63/63/63

f 51/51/51 64/64/64 66/66/66

f 51/51/51 67/67/67 65/65/65

f 51/51/51 66/66/66 68/68/68

f 51/51/51 69/69/69 67/67/67

f 51/51/51 68/68/68 70/70/70

f 51/51/51 71/71/71 69/69/69

f 51/51/51 70/70/70 72/72/72

f 51/51/51 73/73/73 71/71/71

f 51/51/51 72/72/72 74/74/74

f 51/51/51 75/75/75 73/73/73

f 51/51/51 74/74/74 75/75/75

f 76/76/76 77/77/77 78/78/78

f 76/76/76 79/79/79 77/77/77

f 76/76/76 78/78/78 80/80/80

f 76/76/76 81/81/81 79/79/79

f 76/76/76 80/80/80 82/82/82

f 76/76/76 83/83/83 81/81/81

f 76/76/76 82/82/82 84/84/84

f 76/76/76 85/85/85 83/83/83

f 76/76/76 84/84/84 86/86/86

f 76/76/76 87/87/87 85/85/85

f 76/76/76 86/86/86 88/88/88

f 76/76/76 89/89/89 87/87/87

f 76/76/76 88/88/88 90/90/90

f 76/76/76 91/91/91 89/89/89

f 76/76/76 90/90/90 92/92/92

f 76/76/76 93/93/93 91/91/91

f 76/76/76 92/92/92 94/94/94

f 76/76/76 95/95/95 93/93/93

f 76/76/76 94/94/94 96/96/96

f 76/76/76 97/97/97 95/95/95

f 76/76/76 96/96/96 98/98/98

f 76/76/76 99/99/99 97/97/97

f 76/76/76 98/98/98 100/100/100

f 76/76/76 100/100/100 99/99/99

