# UnrealEd OBJ exporter (_Internal)



v -20.000000 0.000000 20.000000

v -20.000000 0.000000 -20.000000

v 20.000000 0.000000 -20.000000

v 20.000000 0.000000 20.000000

v -20.000000 40.000000 20.000000

v 20.000000 40.000000 20.000000

v 20.000000 40.000000 -20.000000

v -20.000000 40.000000 -20.000000

v -20.000000 0.000000 20.000000

v 20.000000 0.000000 20.000000

v 20.000000 40.000000 20.000000

v -20.000000 40.000000 20.000000

v 20.000000 0.000000 20.000000

v 20.000000 0.000000 -20.000000

v 20.000000 40.000000 -20.000000

v 20.000000 40.000000 20.000000

v 20.000000 0.000000 -20.000000

v -20.000000 0.000000 -20.000000

v -20.000000 40.000000 -20.000000

v 20.000000 40.000000 -20.000000

v -20.000000 0.000000 -20.000000

v -20.000000 0.000000 20.000000

v -20.000000 40.000000 20.000000

v -20.000000 40.000000 -20.000000



vt 0.665527 0.332520

vt 0.665527 0.001465

vt 0.334229 0.001465

vt 0.334229 0.332520

vt 0.332031 0.001465

vt 0.000999 0.001465

vt 0.000999 0.332520

vt 0.332031 0.332520

vt 0.342529 0.665771

vt 0.673340 0.665771

vt 0.673340 0.334473

vt 0.342529 0.334473

vt 0.998535 0.001465

vt 0.667480 0.001465

vt 0.667480 0.332520

vt 0.998535 0.332520

vt 0.332031 0.334473

vt 0.000999 0.334473

vt 0.000999 0.665771

vt 0.332031 0.665771

vt 0.000999 0.667969

vt 0.000999 0.999001

vt 0.332031 0.999001

vt 0.332031 0.667969



vn 0.000000 -1.000000 0.000000

vn 0.000000 -1.000000 0.000000

vn 0.000000 -1.000000 0.000000

vn 0.000000 -1.000000 0.000000

vn 0.000000 1.000000 0.000000

vn 0.000000 1.000000 0.000000

vn 0.000000 1.000000 0.000000

vn 0.000000 1.000000 0.000000

vn 0.000000 0.000000 1.000000

vn 0.000000 0.000000 1.000000

vn 0.000000 0.000000 1.000000

vn 0.000000 0.000000 1.000000

vn 1.000000 0.000000 0.000000

vn 1.000000 0.000000 0.000000

vn 1.000000 0.000000 0.000000

vn 1.000000 0.000000 0.000000

vn 0.000000 0.000000 -1.000000

vn 0.000000 0.000000 -1.000000

vn 0.000000 0.000000 -1.000000

vn 0.000000 0.000000 -1.000000

vn -1.000000 0.000000 0.000000

vn -1.000000 0.000000 0.000000

vn -1.000000 0.000000 0.000000

vn -1.000000 0.000000 0.000000

f 1/1/1 2/2/2 3/3/3

f 3/3/3 4/4/4 1/1/1

f 5/5/5 6/6/6 7/7/7

f 7/7/7 8/8/8 5/5/5

f 9/9/9 10/10/10 11/11/11

f 11/11/11 12/12/12 9/9/9

f 13/13/13 14/14/14 15/15/15

f 15/15/15 16/16/16 13/13/13

f 17/17/17 18/18/18 19/19/19

f 19/19/19 20/20/20 17/17/17

f 21/21/21 22/22/22 23/23/23

f 23/23/23 24/24/24 21/21/21

